<mxfile host="app.diagrams.net" agent="Mozilla/5.0 (Windows NT 10.0; Win64; x64) AppleWebKit/537.36 (KHTML, like Gecko) Chrome/137.0.0.0 Safari/537.36" version="27.1.5">
  <diagram name="Página-1" id="ZFSHUAEICmBxBdYMrksn">
    <mxGraphModel dx="1342" dy="728" grid="0" gridSize="10" guides="1" tooltips="1" connect="1" arrows="1" fold="1" page="1" pageScale="1" pageWidth="583" pageHeight="827" background="#000000" math="0" shadow="0">
      <root>
        <mxCell id="0" />
        <mxCell id="1" parent="0" />
        <mxCell id="4BTVM2ZYGQPSjlcfVQHh-1" value="&lt;b&gt;&lt;font style=&quot;font-size: 29px;&quot;&gt;Início&lt;/font&gt;&lt;/b&gt;" style="strokeWidth=2;html=1;shape=mxgraph.flowchart.terminator;whiteSpace=wrap;fillColor=#009C97;" parent="1" vertex="1">
          <mxGeometry x="208" y="95" width="166" height="80" as="geometry" />
        </mxCell>
        <mxCell id="5Hakt9jwJB_AbxaIpzJQ-2" value="" style="endArrow=classic;html=1;rounded=0;strokeColor=#FFFFFF;" edge="1" parent="1">
          <mxGeometry width="50" height="50" relative="1" as="geometry">
            <mxPoint x="290" y="175" as="sourcePoint" />
            <mxPoint x="291" y="268" as="targetPoint" />
          </mxGeometry>
        </mxCell>
        <mxCell id="5Hakt9jwJB_AbxaIpzJQ-3" value="&lt;font style=&quot;font-size: 20px;&quot;&gt;&lt;b style=&quot;&quot;&gt;numero&lt;/b&gt;&lt;/font&gt;" style="html=1;strokeWidth=2;shape=manualInput;whiteSpace=wrap;rounded=1;size=26;arcSize=11;fillColor=#009C97;" vertex="1" parent="1">
          <mxGeometry x="209" y="259" width="166" height="80" as="geometry" />
        </mxCell>
        <mxCell id="5Hakt9jwJB_AbxaIpzJQ-4" value="" style="endArrow=classic;html=1;rounded=0;strokeColor=#FFFFFF;" edge="1" parent="1">
          <mxGeometry width="50" height="50" relative="1" as="geometry">
            <mxPoint x="292" y="339" as="sourcePoint" />
            <mxPoint x="293" y="432" as="targetPoint" />
          </mxGeometry>
        </mxCell>
        <mxCell id="5Hakt9jwJB_AbxaIpzJQ-5" value="&lt;b&gt;&lt;font style=&quot;font-size: 13px;&quot;&gt;&quot;O número que você digitou foi: &quot;, numero&lt;/font&gt;&lt;/b&gt;" style="strokeWidth=2;html=1;shape=mxgraph.flowchart.display;whiteSpace=wrap;fillColor=#009C97;" vertex="1" parent="1">
          <mxGeometry x="208" y="438" width="166" height="80" as="geometry" />
        </mxCell>
        <mxCell id="5Hakt9jwJB_AbxaIpzJQ-6" value="" style="endArrow=classic;html=1;rounded=0;strokeColor=#FFFFFF;" edge="1" parent="1">
          <mxGeometry width="50" height="50" relative="1" as="geometry">
            <mxPoint x="292" y="518" as="sourcePoint" />
            <mxPoint x="293" y="611" as="targetPoint" />
          </mxGeometry>
        </mxCell>
        <mxCell id="5Hakt9jwJB_AbxaIpzJQ-7" value="&lt;font style=&quot;font-size: 29px;&quot;&gt;&lt;b&gt;Fim&lt;/b&gt;&lt;/font&gt;" style="strokeWidth=2;html=1;shape=mxgraph.flowchart.terminator;whiteSpace=wrap;fillColor=#009C97;" vertex="1" parent="1">
          <mxGeometry x="209" y="617" width="166" height="80" as="geometry" />
        </mxCell>
      </root>
    </mxGraphModel>
  </diagram>
</mxfile>
